<svg width="49" height="50" viewBox="0 0 49 50" fill="none" xmlns="http://www.w3.org/2000/svg">
<rect opacity="0.1" width="49" height="50" rx="15" fill="#F9A84D"/>
<path opacity="0.4" d="M23.0833 29.958H16.5078C15.6756 29.958 15 30.6217 15 31.4393C15 32.2559 15.6756 32.9207 16.5078 32.9207H23.0833C23.9155 32.9207 24.5911 32.2559 24.5911 31.4393C24.5911 30.6217 23.9155 29.958 23.0833 29.958Z" fill="#DA6317"/>
<path opacity="0.4" d="M35.0001 20.3787C35.0001 19.5621 34.3246 18.8984 33.4934 18.8984H26.9179C26.0857 18.8984 25.4102 19.5621 25.4102 20.3787C25.4102 21.1963 26.0857 21.86 26.9179 21.86H33.4934C34.3246 21.86 35.0001 21.1963 35.0001 20.3787Z" fill="#DA6317"/>
<path d="M21.8777 20.3786C21.8777 22.2452 20.3389 23.7582 18.4389 23.7582C16.54 23.7582 15 22.2452 15 20.3786C15 18.513 16.54 17 18.4389 17C20.3389 17 21.8777 18.513 21.8777 20.3786Z" fill="#DA6317"/>
<path d="M34.9998 31.3992C34.9998 33.2648 33.4609 34.7777 31.5609 34.7777C29.6621 34.7777 28.1221 33.2648 28.1221 31.3992C28.1221 29.5325 29.6621 28.0195 31.5609 28.0195C33.4609 28.0195 34.9998 29.5325 34.9998 31.3992Z" fill="#DA6317"/>
</svg>
